<?xml version="1.0" encoding="UTF-8"?>
<!DOCTYPE svg PUBLIC "-//W3C//DTD SVG 1.1//EN" "http://www.w3.org/Graphics/SVG/1.1/DTD/svg11.dtd">
<!-- Creator: CorelDRAW 2020 (64 Bit) -->
<svg xmlns="http://www.w3.org/2000/svg" xml:space="preserve" width="61.2543mm" height="22.0133mm" version="1.1" style="shape-rendering:geometricPrecision; text-rendering:geometricPrecision; image-rendering:optimizeQuality; fill-rule:evenodd; clip-rule:evenodd"
viewBox="0 0 6522.92 2344.18"
 xmlns:xlink="http://www.w3.org/1999/xlink"
 xmlns:xodm="http://www.corel.com/coreldraw/odm/2003">
 <defs>
  <style type="text/css">
   <![CDATA[
    .fil0 {fill:#2424FF}
    .fil1 {fill:#2424FF;fill-rule:nonzero}
   ]]>
  </style>
 </defs>
 <g id="Camada_x0020_1">
  <metadata id="CorelCorpID_0Corel-Layer"/>
  <g id="_2212757825792">
   <g>
    <g>
     <g>
      <polygon class="fil0" points="2242.24,0.02 1528.8,0.02 1528.8,1254.26 713.45,8.63 -0,0.02 1528.8,2344.18 2242.24,2344.18 "/>
      <polygon class="fil0" points="-0,752.7 -0,2344.18 713.44,2344.18 713.44,1842.81 "/>
      <path class="fil0" d="M2911.51 0.02l-261.58 0 0 611.51 298.41 0c113.45,0 206.32,92.86 206.32,206.32 0,113.46 -92.86,206.33 -206.32,206.33l-298.41 0 0 694.91 407.67 625.08 713.45 0 -470.5 -718.77c278.64,-142.57 470.52,-432.88 470.52,-765.85 0,-472.77 -386.79,-859.54 -859.56,-859.54z"/>
     </g>
    </g>
   </g>
   <g>
    <path class="fil1" d="M6369.15 177.47l-34.17 0 0 56.07 -29.64 0 0 -161.3 69.72 0c8.14,0 15.62,1.26 22.47,3.8 6.84,2.51 12.75,6.11 17.73,10.72 4.98,4.62 8.86,10.18 11.62,16.65 2.79,6.51 4.17,13.63 4.17,21.5 0,5.82 -0.77,11.33 -2.27,16.43 -1.5,5.1 -3.64,9.67 -6.44,13.8 -2.83,4.09 -6.24,7.69 -10.2,10.78 -4,3.12 -8.46,5.58 -13.35,7.49l35.95 60.12 -33.93 0 -31.66 -56.07zm4.98 -25.5c3.88,0 7.43,-0.66 10.76,-1.96 3.32,-1.33 6.24,-3.15 8.67,-5.46 2.47,-2.34 4.42,-5.19 5.82,-8.5 1.43,-3.32 2.16,-7.01 2.16,-11.01 0,-4.06 -0.73,-7.74 -2.16,-11.05 -1.41,-3.32 -3.35,-6.2 -5.82,-8.58 -2.43,-2.43 -5.38,-4.29 -8.79,-5.63 -3.4,-1.33 -7.01,-2.02 -10.89,-2.02l-38.9 0 0 54.22 39.16 0z"/>
    <path class="fil1" d="M6370.04 0.01c42.16,0 80.39,17.12 108.08,44.81 27.69,27.62 44.81,65.86 44.81,108.05 0,42.16 -17.12,80.4 -44.81,108.08 -27.62,27.69 -65.87,44.81 -108.08,44.81 -42.2,0 -80.43,-17.12 -108.09,-44.78 -27.66,-27.71 -44.79,-65.95 -44.79,-108.11 0,-42.19 17.13,-80.43 44.79,-108.09 27.71,-27.66 65.94,-44.78 108.09,-44.78zm87.72 65.13c-22.39,-22.43 -53.43,-36.29 -87.72,-36.29 -34.28,0 -65.3,13.86 -87.7,36.27 -22.42,22.48 -36.32,53.51 -36.32,87.76 0,34.29 13.85,65.32 36.27,87.73 22.48,22.42 53.51,36.32 87.76,36.32 34.27,0 65.3,-13.91 87.72,-36.32 22.47,-22.41 36.33,-53.44 36.33,-87.73 0,-34.25 -13.91,-65.28 -36.33,-87.74z"/>
   </g>
   <g>
    <polygon class="fil0" points="2242.25,0.01 1528.81,0.01 1528.81,1254.25 713.45,8.61 0.01,0.01 1528.81,2344.17 2242.25,2344.17 "/>
    <polygon class="fil0" points="0.01,752.69 0.01,2344.17 713.44,2344.17 713.44,1842.8 "/>
    <path class="fil0" d="M2911.53 0.01l-261.59 0 0 611.51 298.41 0c113.45,0 206.32,92.86 206.32,206.32 0,113.46 -92.85,206.33 -206.32,206.33l-298.41 0 0 694.91 407.67 625.08 713.45 0 -470.5 -718.77c278.65,-142.57 470.52,-432.88 470.52,-765.85 0,-472.77 -386.79,-859.54 -859.55,-859.54z"/>
   </g>
   <g>
    <g>
     <g>
      <g>
       <polygon class="fil0" points="4176.95,1591.45 4176.95,0 4890.38,0 4890.38,501.37 "/>
       <polygon class="fil0" points="5911.38,1591.45 5911.38,0 5197.95,0 5197.95,501.37 "/>
      </g>
     </g>
    </g>
    <g>
     <path class="fil1" d="M4521.24 2232.3c-37.25,0 -68.56,-6.56 -94.07,-19.69 -25.38,-13.01 -44.19,-30.06 -56.57,-51.02 -12.25,-20.96 -18.43,-43.56 -18.43,-67.68l109.1 0.77c1.01,14.77 6.44,26.52 16.42,35.1 9.97,8.58 24.74,13 44.19,13 33.33,0 50,-11.62 50,-34.84 0,-10.86 -5.18,-18.82 -15.41,-23.87 -10.22,-5.05 -27.14,-9.21 -50.75,-12.37 -42.18,-5.18 -76.14,-17.55 -101.65,-37.12 -25.5,-19.69 -38.25,-48.48 -38.25,-86.36 0,-26.02 6.06,-48.11 17.93,-66.67 11.99,-18.43 29.28,-32.7 51.76,-42.55 22.6,-9.85 49.75,-14.77 81.57,-14.77 31.32,0 59.22,5.43 83.59,16.29 24.49,10.85 43.44,26.13 57.07,45.71 13.51,19.57 20.33,42.3 20.33,68.19l-111.37 -0.64c-0.76,-11.35 -5.3,-20.45 -13.51,-27.27 -8.2,-6.69 -20.2,-10.1 -35.73,-10.1 -13.51,0 -23.62,2.65 -30.05,8.08 -6.57,5.43 -9.85,12.5 -9.85,21.08 0,7.7 1.64,13.39 4.79,17.42 3.16,3.92 9.48,7.2 18.82,9.98 9.47,2.65 24.62,5.56 45.58,8.46 31.06,4.42 56.82,11.12 77.41,19.83 20.71,8.71 36.49,21.21 47.6,37.38 11.12,16.17 16.68,36.99 16.68,62.63 0,28.91 -7.33,53.16 -21.85,72.73 -14.51,19.57 -34.47,34.23 -59.6,43.82 -25.12,9.59 -53.66,14.51 -85.73,14.51z"/>
     <path class="fil1" d="M5004.56 2225.42c-36.11,0 -67.93,-6.43 -95.46,-19.32 -27.66,-12.75 -49.5,-33.46 -65.53,-61.87 -16.04,-28.54 -23.99,-65.16 -23.99,-109.73l0 -204.56 113.14 0 0 200.89c0,59.6 23.99,89.53 71.84,89.53 47.98,0 72.1,-29.92 72.1,-89.53l0 -200.89 112.76 0 0 204.56c0,44.57 -7.95,81.19 -23.99,109.73 -16.04,28.41 -37.88,49.12 -65.53,61.87 -27.53,12.89 -59.35,19.32 -95.34,19.32z"/>
     <path class="fil1" d="M5435.41 1829.95l0 48.48c13.76,-19.57 30.94,-34.47 51.39,-44.82 20.46,-10.36 42.05,-15.54 64.78,-15.54 35.74,0 67.68,9.09 95.58,27.4 28.03,18.19 49.87,42.94 65.53,74 15.65,31.06 23.48,65.02 23.48,102.03 0,37.25 -7.83,71.46 -23.48,102.66 -15.66,31.18 -37.51,55.94 -65.29,74.24 -27.9,18.18 -59.22,27.4 -93.93,27.4 -23.99,0 -45.96,-5.3 -66.04,-15.91 -20.07,-10.61 -36.37,-24.75 -48.74,-42.18l2.27 46.22 0 130.18 -113.89 0 0 -514.16 108.34 0zm96.6 291.17c16.54,0 31.69,-3.91 45.59,-11.75 14.01,-7.7 25.12,-19.19 33.58,-34.21 8.34,-15.03 12.51,-32.96 12.51,-53.66 0,-19.96 -4.05,-37.38 -12.38,-52.53 -8.2,-15.03 -19.43,-26.52 -33.46,-34.6 -14.01,-7.95 -29.55,-12 -46.59,-12 -16.79,0 -32.2,4.42 -46.09,13.14 -13.89,8.84 -25,20.7 -33.09,35.85 -8.2,15.28 -12.25,31.95 -12.25,50.14 0,19.32 4.16,36.48 12.63,51.64 8.33,15.15 19.57,27.03 33.59,35.35 14.14,8.34 29.42,12.63 45.96,12.63z"/>
    </g>
   </g>
  </g>
 </g>
</svg>
